<svg width="4272" height="846" xmlns="http://www.w3.org/2000/svg" xmlns:xlink="http://www.w3.org/1999/xlink" xml:space="preserve" overflow="hidden"><defs><clipPath id="clip0"><rect x="113" y="705" width="4272" height="846"/></clipPath><clipPath id="clip1"><rect x="3394" y="908" width="119" height="115"/></clipPath><clipPath id="clip2"><rect x="3394" y="908" width="119" height="115"/></clipPath><clipPath id="clip3"><rect x="3394" y="908" width="119" height="115"/></clipPath><clipPath id="clip4"><rect x="3173" y="842" width="405" height="396"/></clipPath><clipPath id="clip5"><rect x="3173" y="842" width="405" height="396"/></clipPath><clipPath id="clip6"><rect x="3173" y="842" width="405" height="396"/></clipPath><clipPath id="clip7"><rect x="3215" y="990" width="110" height="115"/></clipPath><clipPath id="clip8"><rect x="3215" y="990" width="110" height="115"/></clipPath><clipPath id="clip9"><rect x="3215" y="990" width="110" height="115"/></clipPath><clipPath id="clip10"><rect x="2457" y="861" width="422" height="380"/></clipPath><clipPath id="clip11"><rect x="2457" y="861" width="422" height="380"/></clipPath><clipPath id="clip12"><rect x="2457" y="861" width="422" height="380"/></clipPath><clipPath id="clip13"><rect x="2680" y="940" width="113" height="102"/></clipPath><clipPath id="clip14"><rect x="2680" y="940" width="113" height="102"/></clipPath><clipPath id="clip15"><rect x="2680" y="940" width="113" height="102"/></clipPath><clipPath id="clip16"><rect x="2506" y="1007" width="116" height="112"/></clipPath><clipPath id="clip17"><rect x="2506" y="1007" width="116" height="112"/></clipPath><clipPath id="clip18"><rect x="2506" y="1007" width="116" height="112"/></clipPath><clipPath id="clip19"><rect x="1160" y="808" width="434" height="433"/></clipPath><clipPath id="clip20"><rect x="1160" y="808" width="434" height="433"/></clipPath><clipPath id="clip21"><rect x="1160" y="808" width="434" height="433"/></clipPath><clipPath id="clip22"><rect x="682" y="845" width="227" height="228"/></clipPath><clipPath id="clip23"><rect x="682" y="845" width="227" height="228"/></clipPath><clipPath id="clip24"><rect x="682" y="845" width="227" height="228"/></clipPath><clipPath id="clip25"><rect x="1807" y="845" width="412" height="412"/></clipPath><clipPath id="clip26"><rect x="1807" y="845" width="412" height="412"/></clipPath><clipPath id="clip27"><rect x="1807" y="845" width="412" height="412"/></clipPath><clipPath id="clip28"><rect x="1942" y="949" width="163" height="161"/></clipPath><clipPath id="clip29"><rect x="1942" y="949" width="163" height="161"/></clipPath><clipPath id="clip30"><rect x="1942" y="949" width="163" height="161"/></clipPath></defs><g clip-path="url(#clip0)" transform="translate(-113 -705)"><g clip-path="url(#clip1)"><g clip-path="url(#clip2)"><g clip-path="url(#clip3)"><path d="M9.50001 23.75 9.50001 90.2501 104.5 90.2501 104.5 23.75 9.50001 23.75ZM58.6626 65.1938C57.7126 66.1438 56.2876 66.1438 55.3376 65.1938L20.1875 30.875 93.9314 30.875 58.6626 65.1938ZM39.7813 56.6438 16.625 79.9188 16.625 33.9625 39.7813 56.6438ZM43.225 59.9688 52.1313 68.6376C53.5563 69.9438 55.3376 70.6563 57.1188 70.6563 58.9001 70.6563 60.6813 69.9438 62.1063 68.6376L71.0126 59.9688 94.0501 83.1251 20.0688 83.1251 43.225 59.9688ZM74.2188 56.6438 97.3751 34.0813 97.3751 79.8001 74.2188 56.6438Z" transform="matrix(1.02632 0 0 1 3395 909)"/></g></g></g><g clip-path="url(#clip4)"><g clip-path="url(#clip5)"><g clip-path="url(#clip6)"><path d="M337.396 263.333 57.6042 263.333 57.6042 82.2917 337.396 82.2917 337.396 263.333ZM345.625 57.6042 49.375 57.6042C40.3229 57.6042 32.9167 65.0104 32.9167 74.0625L32.9167 271.562C32.9167 280.615 40.3229 288.021 49.375 288.021L164.583 288.021 164.583 312.708 123.437 312.708 123.437 337.396 271.562 337.396 271.562 312.708 230.417 312.708 230.417 288.021 345.625 288.021C354.677 288.021 362.083 280.615 362.083 271.562L362.083 74.0625C362.083 65.0104 354.677 57.6042 345.625 57.6042Z" transform="matrix(1.02278 0 0 1 3173 843)"/></g></g></g><g clip-path="url(#clip7)"><g clip-path="url(#clip8)"><g clip-path="url(#clip9)"><path d="M56.7708 37.4687C56.7708 38.7229 55.7541 39.7396 54.5 39.7396 53.2458 39.7396 52.2291 38.7229 52.2291 37.4687 52.2291 36.2146 53.2458 35.1979 54.5 35.1979 55.7541 35.1979 56.7708 36.2146 56.7708 37.4687Z" transform="matrix(1 0 0 1.04587 3215 990)"/><path d="M56.7708 82.8854C56.7708 84.1395 55.7541 85.1562 54.5 85.1562 53.2458 85.1562 52.2291 84.1395 52.2291 82.8854 52.2291 81.6312 53.2458 80.6146 54.5 80.6146 55.7541 80.6146 56.7708 81.6312 56.7708 82.8854Z" transform="matrix(1 0 0 1.04587 3215 990)"/><path d="M79.4791 59.0416C79.4791 60.2958 78.4624 61.3125 77.2083 61.3125 75.9542 61.3125 74.9375 60.2958 74.9375 59.0416 74.9375 57.7875 75.9542 56.7708 77.2083 56.7708 78.4624 56.7708 79.4791 57.7875 79.4791 59.0416Z" transform="matrix(1 0 0 1.04587 3215 990)"/><path d="M34.0625 59.0416C34.0625 60.2958 33.0458 61.3125 31.7917 61.3125 30.5375 61.3125 29.5208 60.2958 29.5208 59.0416 29.5208 57.7875 30.5375 56.7708 31.7917 56.7708 33.0458 56.7708 34.0625 57.7875 34.0625 59.0416Z" transform="matrix(1 0 0 1.04587 3215 990)"/><path d="M56.7708 43.1458 52.2291 43.1458 52.2291 59.0416C52.2291 59.6094 52.4562 60.1771 52.9104 60.6312L64.151 71.8718 67.3302 68.6927 56.7708 58.1333 56.7708 43.1458Z" transform="matrix(1 0 0 1.04587 3215 990)"/><path d="M54.5 91.9687C36.901 91.9687 22.7083 77.776 22.7083 60.1771 22.7083 42.5781 36.901 28.3854 54.5 28.3854 72.0989 28.3854 86.2916 42.5781 86.2916 60.1771 86.2916 77.776 72.0989 91.9687 54.5 91.9687L54.5 91.9687ZM81.4093 32.4729 84.8156 29.0667C86.0646 27.7042 86.0646 25.6604 84.702 24.2979 83.4531 23.049 81.2958 22.9354 79.9333 24.1844L76.0729 28.1583C70.6229 24.525 64.3781 22.2542 57.9062 21.8L57.9062 17.0312 68.125 17.0312 68.125 10.2187 40.875 10.2187 40.875 17.0312 51.0937 17.0312 51.0937 21.6865C33.0406 23.276 18.5073 37.2417 16.2365 55.2948 13.9656 73.3479 24.525 90.4927 41.6698 96.5104 58.8146 102.528 77.776 95.9427 87.4271 80.501 97.0781 65.0593 94.3531 45.076 81.4093 32.4729L81.4093 32.4729Z" transform="matrix(1 0 0 1.04587 3215 990)"/></g></g></g><g clip-path="url(#clip10)"><g clip-path="url(#clip11)"><g clip-path="url(#clip12)"><path d="M324.583 253.333 55.4166 253.333 55.4166 79.1666 324.583 79.1666 324.583 253.333ZM332.5 55.4166 47.5 55.4166C38.7916 55.4166 31.6667 62.5416 31.6667 71.25L31.6667 261.25C31.6667 269.958 38.7916 277.083 47.5 277.083L158.333 277.083 158.333 300.833 118.75 300.833 118.75 324.583 261.25 324.583 261.25 300.833 221.667 300.833 221.667 277.083 332.5 277.083C341.208 277.083 348.333 269.958 348.333 261.25L348.333 71.25C348.333 62.5416 341.208 55.4166 332.5 55.4166Z" transform="matrix(1.11053 0 0 1 2457 861)"/></g></g></g><g clip-path="url(#clip13)"><g clip-path="url(#clip14)"><g clip-path="url(#clip15)"><path d="M36.7177 27.3542 64.0719 27.3542 64.0719 31.5625 36.7177 31.5625Z" transform="matrix(1.10891 0 0 1 2681 941)"/><path d="M36.7177 35.7709 64.0719 35.7709 64.0719 39.9792 36.7177 39.9792Z" transform="matrix(1.10891 0 0 1 2681 941)"/><path d="M36.7177 44.1875 64.0719 44.1875 64.0719 48.3959 36.7177 48.3959Z" transform="matrix(1.10891 0 0 1 2681 941)"/><path d="M87.323 87.9542 66.2813 67.9646 87.323 47.975 87.323 87.9542ZM19.1479 90.4792 39.9792 70.8053 41.4521 69.4375C47.1334 64.0719 56.0761 64.0719 61.7573 69.4375L63.2302 70.8053 83.9563 90.4792 19.1479 90.4792ZM15.7813 47.8698 36.8229 67.8594 15.7813 87.849 15.7813 47.8698ZM30.5104 21.0417 72.5938 21.0417 72.5938 56.0761 63.125 65.124C56.2865 59.8636 46.8177 59.8636 39.9792 65.124L30.5104 56.0761 30.5104 21.0417ZM78.9063 23.8823 78.9063 14.7292 64.1771 14.7292 51.5521 4.20834 38.9271 14.7292 24.1979 14.7292 24.1979 23.9875 9.46876 37.9802 9.46876 96.7917 93.6355 96.7917 93.6355 37.9802 78.9063 23.8823Z" transform="matrix(1.10891 0 0 1 2681 941)"/></g></g></g><g clip-path="url(#clip16)"><g clip-path="url(#clip17)"><g clip-path="url(#clip18)"><path d="M57.8125 38.1563C57.8125 39.4334 56.7772 40.4688 55.5 40.4688 54.2229 40.4688 53.1875 39.4334 53.1875 38.1563 53.1875 36.8791 54.2229 35.8438 55.5 35.8438 56.7772 35.8438 57.8125 36.8791 57.8125 38.1563Z" transform="matrix(1.02703 0 0 1 2507 1008)"/><path d="M57.8125 84.4063C57.8125 85.6834 56.7772 86.7188 55.5 86.7188 54.2229 86.7188 53.1875 85.6834 53.1875 84.4063 53.1875 83.1291 54.2229 82.0938 55.5 82.0938 56.7772 82.0938 57.8125 83.1291 57.8125 84.4063Z" transform="matrix(1.02703 0 0 1 2507 1008)"/><path d="M80.9375 60.125C80.9375 61.4022 79.9022 62.4375 78.625 62.4375 77.3479 62.4375 76.3125 61.4022 76.3125 60.125 76.3125 58.8479 77.3479 57.8125 78.625 57.8125 79.9022 57.8125 80.9375 58.8479 80.9375 60.125Z" transform="matrix(1.02703 0 0 1 2507 1008)"/><path d="M34.6875 60.125C34.6875 61.4022 33.6522 62.4375 32.375 62.4375 31.0979 62.4375 30.0625 61.4022 30.0625 60.125 30.0625 58.8479 31.0979 57.8125 32.375 57.8125 33.6522 57.8125 34.6875 58.8479 34.6875 60.125Z" transform="matrix(1.02703 0 0 1 2507 1008)"/><path d="M57.8125 43.9375 53.1875 43.9375 53.1875 60.125C53.1875 60.7031 53.4188 61.2813 53.8813 61.7438L65.3281 73.1906 68.5656 69.9531 57.8125 59.2 57.8125 43.9375Z" transform="matrix(1.02703 0 0 1 2507 1008)"/><path d="M55.5 93.6563C37.5781 93.6563 23.125 79.2031 23.125 61.2813 23.125 43.3594 37.5781 28.9063 55.5 28.9063 73.4219 28.9063 87.875 43.3594 87.875 61.2813 87.875 79.2031 73.4219 93.6563 55.5 93.6563L55.5 93.6563ZM82.9031 33.0688 86.3719 29.6C87.6438 28.2125 87.6438 26.1313 86.2563 24.7438 84.9844 23.4719 82.7875 23.3563 81.4 24.6281L77.4688 28.675C71.9188 24.975 65.5594 22.6625 58.9688 22.2L58.9688 17.3438 69.375 17.3438 69.375 10.4063 41.625 10.4063 41.625 17.3438 52.0313 17.3438 52.0313 22.0844C33.6469 23.7031 18.8469 37.925 16.5344 56.3094 14.2219 74.6938 24.975 92.1532 42.4344 98.2813 59.8938 104.409 79.2031 97.7032 89.0313 81.9781 98.8594 66.2531 96.0844 45.9031 82.9031 33.0688L82.9031 33.0688Z" transform="matrix(1.02703 0 0 1 2507 1008)"/></g></g></g><text fill="#2C415C" font-family="Arial,Arial_MSFontService,sans-serif" font-weight="700" font-size="50" transform="matrix(1 0 0 1 145.556 787)">Hospital <tspan font-size="50" x="2943.33" y="-1">Acknowledgement</tspan><tspan font-size="50" x="3402.81" y="-1">sent</tspan><tspan font-size="50" x="1636.61" y="-17">HospitalNotification</tspan><tspan font-size="50" x="1636.61" y="42">received</tspan><tspan fill="#333333" font-weight="400" font-size="46" x="3038.83" y="570">Provenance.recorded</tspan><tspan fill="#333333" font-weight="400" font-size="46" x="3012.6" y="671">Provenance.occuredDateTim</tspan><tspan fill="#333333" font-weight="400" font-size="46" x="3295.34" y="726">e</tspan><tspan fill="#333333" font-family="Calibri,Calibri_MSFontService,sans-serif" font-weight="400" font-size="50" x="2327.69" y="579">Bundle.timestamp</tspan></text><path d="M2676.15 1192 2676.15 1279.75 2673.85 1279.75 2673.85 1192ZM2688.75 1275.17 2675 1302.67 2661.25 1275.17Z" fill="#2C415C"/><path d="M3367.15 1210 3367.15 1297.75 3364.85 1297.75 3364.85 1210ZM3379.75 1293.17 3366 1320.67 3352.25 1293.17Z" fill="#2C415C"/><path d="M345.22 995.579 345.22 985.263 294 944 242.781 985.263 242.781 995.579 119 995.579 119 1009.33 127.536 1009.33 127.536 1140 460.463 1140 460.463 1009.33 469 1009.33 469 995.579ZM170.22 1112.49 144.61 1112.49 144.61 1091.86 170.22 1091.86ZM170.22 1078.11 144.61 1078.11 144.61 1057.47 170.22 1057.47ZM170.22 1043.72 144.61 1043.72 144.61 1023.09 170.22 1023.09ZM212.902 1112.49 187.293 1112.49 187.293 1091.86 212.902 1091.86ZM212.902 1078.11 187.293 1078.11 187.293 1057.47 212.902 1057.47ZM212.902 1043.72 187.293 1043.72 187.293 1023.09 212.902 1023.09ZM255.585 1112.49 229.975 1112.49 229.975 1091.86 255.585 1091.86ZM255.585 1078.11 229.975 1078.11 229.975 1057.47 255.585 1057.47ZM255.585 1043.72 229.975 1043.72 229.975 1023.09 255.585 1023.09ZM276.927 1126.25 276.927 1078.11 311.073 1078.11 311.073 1126.25ZM323.878 1008.92 315.896 1020.06 301.982 1013.56 301.982 1026.53 286.018 1026.53 286.018 1013.56 272.104 1020.06 264.122 1008.92 278.079 1002.46 264.122 995.992 272.104 984.851 286.018 991.349 286.018 978.386 301.982 978.386 301.982 991.349 315.896 984.851 323.878 995.992 309.921 1002.46ZM358.024 1112.49 332.414 1112.49 332.414 1091.86 358.024 1091.86ZM358.024 1078.11 332.414 1078.11 332.414 1057.47 358.024 1057.47ZM358.024 1043.72 332.414 1043.72 332.414 1023.09 358.024 1023.09ZM400.707 1112.49 375.098 1112.49 375.098 1091.86 400.707 1091.86ZM400.707 1078.11 375.098 1078.11 375.098 1057.47 400.707 1057.47ZM400.707 1043.72 375.098 1043.72 375.098 1023.09 400.707 1023.09ZM443.39 1112.49 417.781 1112.49 417.781 1091.86 443.39 1091.86ZM443.39 1078.11 417.781 1078.11 417.781 1057.47 443.39 1057.47ZM443.39 1043.72 417.781 1043.72 417.781 1023.09 443.39 1023.09Z" fill-rule="evenodd"/><path d="M294 926.296 356.014 976 368 966.386 294 907 220 966.386 231.986 976 294 926.296Z" fill-rule="evenodd"/><path d="M266.647 995.772 271.427 985.804 294.5 996.87 317.573 985.804 322.353 995.772 307.282 1003 322.353 1010.23 317.573 1020.2 294.5 1009.13 271.427 1020.2 266.647 1010.23 281.718 1003Z" stroke="#FF0000" stroke-width="4.58333" stroke-miterlimit="8" fill="#FF0000" fill-rule="evenodd"/><rect x="285.549" y="973.982" width="16.9027" height="55.0366" stroke="#FF0000" stroke-width="4.58333" stroke-miterlimit="8" fill="#FF0000"/><g clip-path="url(#clip19)"><g clip-path="url(#clip20)"><g clip-path="url(#clip21)"><path d="M216.5 98.327 281.45 163.728 294.079 151.099 216.5 76.677 137.117 152.452 149.746 165.081Z" transform="matrix(1.00231 0 0 1 1160 808)"/><path d="M360.833 261.153 324.75 261.153 324.75 225.07 360.833 225.07 360.833 261.153ZM360.833 315.278 324.75 315.278 324.75 279.195 360.833 279.195 360.833 315.278ZM306.708 261.153 270.625 261.153 270.625 225.07 306.708 225.07 306.708 261.153ZM306.708 315.278 270.625 315.278 270.625 279.195 306.708 279.195 306.708 315.278ZM248.073 261.153 184.927 261.153 184.927 243.111 248.073 243.111 248.073 261.153ZM216.5 175.455C224.168 175.455 230.031 181.319 230.031 188.986 230.031 196.654 224.168 202.518 216.5 202.518 208.832 202.518 202.969 196.654 202.969 188.986 202.969 181.319 208.832 175.455 216.5 175.455ZM162.375 261.153 126.292 261.153 126.292 225.07 162.375 225.07 162.375 261.153ZM162.375 315.278 126.292 315.278 126.292 279.195 162.375 279.195 162.375 315.278ZM108.25 261.153 72.1666 261.153 72.1666 225.07 108.25 225.07 108.25 261.153ZM108.25 315.278 72.1666 315.278 72.1666 279.195 108.25 279.195 108.25 315.278ZM270.625 202.518 270.625 175.455 216.5 121.33 162.375 175.455 162.375 202.518 54.125 202.518 54.125 355.872 184.927 355.872 184.927 306.257C184.927 293.628 193.948 279.195 216.5 279.195 239.052 279.195 248.073 293.628 248.073 306.257L248.073 355.872 378.875 355.872 378.875 202.518 270.625 202.518Z" transform="matrix(1.00231 0 0 1 1160 808)"/></g></g></g><text fill="#2C415C" font-family="Arial,Arial_MSFontService,sans-serif" font-weight="700" font-size="50" transform="matrix(1 0 0 1 1206.29 788)">Municipality</text><g clip-path="url(#clip22)"><g clip-path="url(#clip23)"><g clip-path="url(#clip24)"><path d="M700.917 893.292 700.917 1025.71 890.083 1025.71 890.083 893.292 700.917 893.292ZM798.81 975.815C796.919 977.707 794.081 977.707 792.19 975.815L722.198 907.479 869.038 907.479 798.81 975.815ZM761.214 958.791 715.104 1005.14 715.104 913.627 761.214 958.791ZM768.071 965.411 785.805 982.673C788.643 985.274 792.19 986.693 795.736 986.693 799.283 986.693 802.83 985.274 805.668 982.673L823.402 965.411 869.275 1011.52 721.961 1011.52 768.071 965.411ZM829.786 958.791 875.896 913.863 875.896 1004.9 829.786 958.791Z"/></g></g></g><path d="M653.5 1082.06 940.234 1082.06 940.234 1088.94 653.5 1088.94ZM935.65 1071.75 963.15 1085.5 935.65 1099.25Z"/><text fill="#2C415C" font-family="Arial,Arial_MSFontService,sans-serif" font-weight="700" font-size="50" transform="matrix(1 0 0 1 555.211 787)">HospitalNotification</text><g clip-path="url(#clip25)"><g clip-path="url(#clip26)"><g clip-path="url(#clip27)"><path d="M350.208 273.333 59.7917 273.333 59.7917 85.4167 350.208 85.4167 350.208 273.333ZM358.75 59.7917 51.25 59.7917C41.8542 59.7917 34.1667 67.4792 34.1667 76.875L34.1667 281.875C34.1667 291.271 41.8542 298.958 51.25 298.958L170.833 298.958 170.833 324.583 128.125 324.583 128.125 350.208 281.875 350.208 281.875 324.583 239.167 324.583 239.167 298.958 358.75 298.958C368.146 298.958 375.833 291.271 375.833 281.875L375.833 76.875C375.833 67.4792 368.146 59.7917 358.75 59.7917Z" transform="matrix(1.00488 0 0 1 1807 846)"/></g></g></g><g clip-path="url(#clip28)"><g clip-path="url(#clip29)"><g clip-path="url(#clip30)"><path d="M13.4167 33.5416 13.4167 127.458 147.583 127.458 147.583 33.5416 13.4167 33.5416ZM82.8478 92.0718C81.5062 93.4135 79.4937 93.4135 78.152 92.0718L28.5104 43.6041 132.657 43.6041 82.8478 92.0718ZM56.1822 79.9968 23.4791 112.868 23.4791 47.9645 56.1822 79.9968ZM61.0458 84.6926 73.6239 96.9353C75.6364 98.7801 78.152 99.7864 80.6676 99.7864 83.1833 99.7864 85.6989 98.7801 87.7114 96.9353L100.289 84.6926 132.825 117.396 28.3427 117.396 61.0458 84.6926ZM104.818 79.9968 137.521 48.1323 137.521 112.7 104.818 79.9968Z" transform="matrix(1 0 0 1 1943 949)"/></g></g></g><path d="M0 0-6.90345 0-6.90345 95.2658 120.816 95.2658" stroke="#000000" stroke-width="2.29167" stroke-miterlimit="8" fill="none" fill-rule="evenodd" transform="matrix(1 0 0 -1 1955 1073.27)"/><path d="M0 0-5.71095 0-5.71095 102.062 133.557 102.062" stroke="#000000" stroke-width="2.29167" stroke-miterlimit="8" fill="none" fill-rule="evenodd" transform="matrix(1 0 0 -1 1946 1073.06)"/><path d="M2104 1029 2104 1029" stroke="#000000" stroke-width="2.29167" stroke-miterlimit="8" fill="none" fill-rule="evenodd"/><path d="M2104 1029 2104 1029" stroke="#000000" stroke-width="2.29167" stroke-miterlimit="8" fill="none" fill-rule="evenodd"/><path d="M2104 1029 2104 1029" stroke="#000000" stroke-width="2.29167" stroke-miterlimit="8" fill="none" fill-rule="evenodd"/><path d="M2079 970 2079 984.757" stroke="#000000" stroke-width="2.29167" stroke-miterlimit="8" fill="none" fill-rule="evenodd"/><path d="M2075 978 2075 985.378" stroke="#000000" stroke-width="2.29167" stroke-miterlimit="8" fill="none" fill-rule="evenodd"/><text fill="#2C415C" font-family="Arial,Arial_MSFontService,sans-serif" font-weight="700" font-size="50" transform="matrix(1 0 0 1 2448.14 773)">Acknowledgement<tspan font-size="50" x="0" y="59">created</tspan></text><path d="M1594.5 1058.06 1744.4 1058.06 1744.4 1064.94 1594.5 1064.94ZM1739.81 1047.75 1767.31 1061.5 1739.81 1075.25Z"/><path d="M4047.74 949.526 4047.74 936.421 3995.5 884 3943.26 936.421 3943.26 949.526 3817 949.526 3817 967 3825.71 967 3825.71 1133 4165.29 1133 4165.29 967 4174 967 4174 949.526ZM3869.24 1098.05 3843.12 1098.05 3843.12 1071.84 3869.24 1071.84ZM3869.24 1054.37 3843.12 1054.37 3843.12 1028.16 3869.24 1028.16ZM3869.24 1010.68 3843.12 1010.68 3843.12 984.474 3869.24 984.474ZM3912.78 1098.05 3886.66 1098.05 3886.66 1071.84 3912.78 1071.84ZM3912.78 1054.37 3886.66 1054.37 3886.66 1028.16 3912.78 1028.16ZM3912.78 1010.68 3886.66 1010.68 3886.66 984.474 3912.78 984.474ZM3956.32 1098.05 3930.2 1098.05 3930.2 1071.84 3956.32 1071.84ZM3956.32 1054.37 3930.2 1054.37 3930.2 1028.16 3956.32 1028.16ZM3956.32 1010.68 3930.2 1010.68 3930.2 984.474 3956.32 984.474ZM3978.09 1115.53 3978.09 1054.37 4012.91 1054.37 4012.91 1115.53ZM4025.98 966.476 4017.83 980.63 4003.64 972.373 4003.64 988.842 3987.36 988.842 3987.36 972.373 3973.17 980.63 3965.02 966.476 3979.26 958.263 3965.02 950.051 3973.17 935.897 3987.36 944.153 3987.36 927.684 4003.64 927.684 4003.64 944.153 4017.83 935.897 4025.98 950.051 4011.74 958.263ZM4060.81 1098.05 4034.68 1098.05 4034.68 1071.84 4060.81 1071.84ZM4060.81 1054.37 4034.68 1054.37 4034.68 1028.16 4060.81 1028.16ZM4060.81 1010.68 4034.68 1010.68 4034.68 984.474 4060.81 984.474ZM4104.34 1098.05 4078.22 1098.05 4078.22 1071.84 4104.34 1071.84ZM4104.34 1054.37 4078.22 1054.37 4078.22 1028.16 4104.34 1028.16ZM4104.34 1010.68 4078.22 1010.68 4078.22 984.474 4104.34 984.474ZM4147.88 1098.05 4121.76 1098.05 4121.76 1071.84 4147.88 1071.84ZM4147.88 1054.37 4121.76 1054.37 4121.76 1028.16 4147.88 1028.16ZM4147.88 1010.68 4121.76 1010.68 4121.76 984.474 4147.88 984.474Z" fill-rule="evenodd"/><path d="M3995.5 861.609 4058.77 925 4071 912.739 3995.5 837 3920 912.739 3932.23 925 3995.5 861.609Z" fill-rule="evenodd"/><path d="M3966.62 948.945 3973.93 936.876 3996 950.249 4018.07 936.876 4025.38 948.945 4009.61 958.5 4025.38 968.055 4018.07 980.124 3996 966.751 3973.93 980.124 3966.62 968.055 3982.39 958.5Z" stroke="#FF0000" stroke-width="4.58333" stroke-miterlimit="8" fill="#FF0000" fill-rule="evenodd"/><rect x="3987.55" y="922.073" width="16.9028" height="69.8541" stroke="#FF0000" stroke-width="4.58333" stroke-miterlimit="8" fill="#FF0000"/><text fill="#2C415C" font-family="Arial,Arial_MSFontService,sans-serif" font-weight="700" font-size="50" transform="matrix(1 0 0 1 3897.17 787)">Hospital </text><path d="M2219.5 1054.06 2369.4 1054.06 2369.4 1060.94 2219.5 1060.94ZM2364.81 1043.75 2392.31 1057.5 2364.81 1071.25Z"/><path d="M2948.5 1044.06 3098.4 1044.06 3098.4 1050.94 2948.5 1050.94ZM3093.81 1033.75 3121.31 1047.5 3093.81 1061.25Z"/><path d="M3614.5 1039.06 3764.4 1039.06 3764.4 1045.94 3614.5 1045.94ZM3759.81 1028.75 3787.31 1042.5 3759.81 1056.25Z"/></g></svg>