<?xml version="1.0" encoding="UTF-8" standalone="no"?><svg xmlns="http://www.w3.org/2000/svg" xmlns:xlink="http://www.w3.org/1999/xlink" contentStyleType="text/css" height="176px" preserveAspectRatio="none" style="width:607px;height:176px;background:#FFFFFF;" version="1.1" viewBox="0 0 607 176" width="607px" zoomAndPan="magnify"><defs/><g><!--MD5=[d74c0150cefd6163f70b4324cc822a09]
class messageHeader--><g id="elem_messageHeader"><rect codeLine="4" fill="#F1F1F1" height="42.7031" id="messageHeader" rx="2.5" ry="2.5" style="stroke:#181818;stroke-width:0.5;" width="305" x="248.5" y="7"/><ellipse cx="263.5" cy="28.3516" fill="#ADD1B2" rx="11" ry="11" style="stroke:#181818;stroke-width:1.0;"/><path d="M266.2656,24.2266 Q266.4219,24.0078 266.6094,23.8984 Q266.7969,23.7891 267.0156,23.7891 Q267.3906,23.7891 267.625,24.0469 Q267.8594,24.3047 267.8594,24.9141 L267.8594,26.3672 Q267.8594,26.9766 267.625,27.2422 Q267.3906,27.5078 267.0156,27.5078 Q266.6719,27.5078 266.4688,27.3047 Q266.2656,27.1172 266.1563,26.6016 Q266.1094,26.2422 265.9219,26.0547 Q265.5938,25.6797 264.9844,25.4609 Q264.375,25.2422 263.75,25.2422 Q262.9844,25.2422 262.3516,25.5703 Q261.7188,25.8984 261.2266,26.6484 Q260.7344,27.3984 260.7344,28.4297 L260.7344,29.5234 Q260.7344,30.7578 261.625,31.5781 Q262.5156,32.3984 264.1094,32.3984 Q265.0469,32.3984 265.7031,32.1484 Q266.0938,31.9922 266.5156,31.5547 Q266.7813,31.2891 266.9297,31.2109 Q267.0781,31.1328 267.2813,31.1328 Q267.6094,31.1328 267.8672,31.3906 Q268.125,31.6484 268.125,31.9922 Q268.125,32.3359 267.7813,32.7422 Q267.2813,33.3203 266.4844,33.6484 Q265.4063,34.1016 264.1094,34.1016 Q262.5938,34.1016 261.3906,33.4766 Q260.4063,32.9766 259.7188,31.9063 Q259.0313,30.8359 259.0313,29.5547 L259.0313,28.3984 Q259.0313,27.0703 259.6484,25.9219 Q260.2656,24.7734 261.3594,24.1563 Q262.4531,23.5391 263.6875,23.5391 Q264.4219,23.5391 265.0703,23.7031 Q265.7188,23.8672 266.2656,24.2266 Z " fill="#000000"/><text fill="#000000" font-family="sans-serif" font-size="12" font-style="italic" lengthAdjust="spacing" textLength="213" x="307.5" y="24.457">«MedComMessagingMessageHeader»</text><text fill="#000000" font-family="sans-serif" font-size="14" lengthAdjust="spacing" textLength="273" x="277.5" y="41.627">MedComAcknowledgementMessageHeader</text></g><!--MD5=[8eea9f157b18cbae56331c03ae5be20b]
class outcome--><g id="elem_outcome"><rect codeLine="5" fill="#F1F1F1" height="32" id="outcome" rx="2.5" ry="2.5" style="stroke:#181818;stroke-width:0.5;" width="322" x="7" y="133.5"/><ellipse cx="22" cy="149.5" fill="#ADD1B2" rx="11" ry="11" style="stroke:#181818;stroke-width:1.0;"/><path d="M24.7656,145.375 Q24.9219,145.1563 25.1094,145.0469 Q25.2969,144.9375 25.5156,144.9375 Q25.8906,144.9375 26.125,145.1953 Q26.3594,145.4531 26.3594,146.0625 L26.3594,147.5156 Q26.3594,148.125 26.125,148.3906 Q25.8906,148.6563 25.5156,148.6563 Q25.1719,148.6563 24.9688,148.4531 Q24.7656,148.2656 24.6563,147.75 Q24.6094,147.3906 24.4219,147.2031 Q24.0938,146.8281 23.4844,146.6094 Q22.875,146.3906 22.25,146.3906 Q21.4844,146.3906 20.8516,146.7188 Q20.2188,147.0469 19.7266,147.7969 Q19.2344,148.5469 19.2344,149.5781 L19.2344,150.6719 Q19.2344,151.9063 20.125,152.7266 Q21.0156,153.5469 22.6094,153.5469 Q23.5469,153.5469 24.2031,153.2969 Q24.5938,153.1406 25.0156,152.7031 Q25.2813,152.4375 25.4297,152.3594 Q25.5781,152.2813 25.7813,152.2813 Q26.1094,152.2813 26.3672,152.5391 Q26.625,152.7969 26.625,153.1406 Q26.625,153.4844 26.2813,153.8906 Q25.7813,154.4688 24.9844,154.7969 Q23.9063,155.25 22.6094,155.25 Q21.0938,155.25 19.8906,154.625 Q18.9063,154.125 18.2188,153.0547 Q17.5313,151.9844 17.5313,150.7031 L17.5313,149.5469 Q17.5313,148.2188 18.1484,147.0703 Q18.7656,145.9219 19.8594,145.3047 Q20.9531,144.6875 22.1875,144.6875 Q22.9219,144.6875 23.5703,144.8516 Q24.2188,145.0156 24.7656,145.375 Z " fill="#000000"/><text fill="#000000" font-family="sans-serif" font-size="14" lengthAdjust="spacing" textLength="290" x="36" y="155.2285">MedComAcknowledgementOperationOutcome</text></g><!--MD5=[d64d5c7357c79f774106f79272da7625]
class organization--><g id="elem_organization"><rect codeLine="6" fill="#F1F1F1" height="42.7031" id="organization" rx="2.5" ry="2.5" style="stroke:#181818;stroke-width:0.5;" width="236" x="364" y="128"/><ellipse cx="379" cy="149.3516" fill="#ADD1B2" rx="11" ry="11" style="stroke:#181818;stroke-width:1.0;"/><path d="M381.7656,145.2266 Q381.9219,145.0078 382.1094,144.8984 Q382.2969,144.7891 382.5156,144.7891 Q382.8906,144.7891 383.125,145.0469 Q383.3594,145.3047 383.3594,145.9141 L383.3594,147.3672 Q383.3594,147.9766 383.125,148.2422 Q382.8906,148.5078 382.5156,148.5078 Q382.1719,148.5078 381.9688,148.3047 Q381.7656,148.1172 381.6563,147.6016 Q381.6094,147.2422 381.4219,147.0547 Q381.0938,146.6797 380.4844,146.4609 Q379.875,146.2422 379.25,146.2422 Q378.4844,146.2422 377.8516,146.5703 Q377.2188,146.8984 376.7266,147.6484 Q376.2344,148.3984 376.2344,149.4297 L376.2344,150.5234 Q376.2344,151.7578 377.125,152.5781 Q378.0156,153.3984 379.6094,153.3984 Q380.5469,153.3984 381.2031,153.1484 Q381.5938,152.9922 382.0156,152.5547 Q382.2813,152.2891 382.4297,152.2109 Q382.5781,152.1328 382.7813,152.1328 Q383.1094,152.1328 383.3672,152.3906 Q383.625,152.6484 383.625,152.9922 Q383.625,153.3359 383.2813,153.7422 Q382.7813,154.3203 381.9844,154.6484 Q380.9063,155.1016 379.6094,155.1016 Q378.0938,155.1016 376.8906,154.4766 Q375.9063,153.9766 375.2188,152.9063 Q374.5313,151.8359 374.5313,150.5547 L374.5313,149.3984 Q374.5313,148.0703 375.1484,146.9219 Q375.7656,145.7734 376.8594,145.1563 Q377.9531,144.5391 379.1875,144.5391 Q379.9219,144.5391 380.5703,144.7031 Q381.2188,144.8672 381.7656,145.2266 Z " fill="#000000"/><text fill="#000000" font-family="sans-serif" font-size="12" font-style="italic" lengthAdjust="spacing" textLength="162" x="414" y="145.457">«MedComCoreOrganization»</text><text fill="#000000" font-family="sans-serif" font-size="14" lengthAdjust="spacing" textLength="204" x="393" y="162.627">MedComMessagingOrganization</text></g><!--MD5=[dd61f2726487b6026b029f1288697a88]
link messageHeader to outcome--><g id="link_messageHeader_outcome"><path codeLine="8" d="M351.65,50.01 C331.39,58.78 307.85,69.42 287,80 C255.58,95.95 220.78,116.31 196.97,130.68 " fill="none" id="messageHeader-to-outcome" style="stroke:#181818;stroke-width:1.0;"/><polygon fill="#181818" points="192.65,133.29,202.4194,132.0417,196.9248,130.6966,198.27,125.202,192.65,133.29" style="stroke:#181818;stroke-width:1.0;"/><text fill="#000000" font-family="sans-serif" font-size="13" lengthAdjust="spacing" textLength="95" x="288" y="94.4951">response.details</text></g><!--MD5=[746a33207db6e799502ef4ecf0370aea]
link messageHeader to organization--><g id="link_messageHeader_organization"><path codeLine="9" d="M394.66,50.01 C391.46,64.37 389.8,83.49 398,98 C404.29,109.11 414.1,118.05 424.84,125.13 " fill="none" id="messageHeader-to-organization" style="stroke:#181818;stroke-width:1.0;"/><polygon fill="#181818" points="429.16,127.86,423.6876,119.6714,424.9329,125.1895,419.4148,126.4348,429.16,127.86" style="stroke:#181818;stroke-width:1.0;"/><text fill="#000000" font-family="sans-serif" font-size="13" lengthAdjust="spacing" textLength="39" x="399" y="94.4951">sender</text></g><!--MD5=[746a33207db6e799502ef4ecf0370aea]
link messageHeader to organization--><g id="link_messageHeader_organization"><path codeLine="10" d="M419.85,50.47 C427.42,59.31 435.99,69.88 443,80 C452.51,93.73 461.81,109.93 468.95,123.13 " fill="none" id="messageHeader-to-organization-1" style="stroke:#181818;stroke-width:1.0;"/><polygon fill="#181818" points="471.47,127.85,470.7212,118.0296,469.0978,123.4486,463.6789,121.8252,471.47,127.85" style="stroke:#181818;stroke-width:1.0;"/><text fill="#000000" font-family="sans-serif" font-size="13" lengthAdjust="spacing" textLength="44" x="454" y="94.4951">receiver</text></g><!--MD5=[3e0aafd14988d9c9a807d8542a971fbd]
@startuml AcknowledgementMessageHeader

hide empty members

class "MedComAcknowledgementMessageHeader" as messageHeader <<MedComMessagingMessageHeader>>
class "MedComAcknowledgementOperationOutcome" as outcome
class "MedComMessagingOrganization" as organization <<MedComCoreOrganization>>

messageHeader - -> outcome : "response.details"
messageHeader - -> organization : "sender"
messageHeader - -> organization : "receiver"

@enduml

PlantUML version 1.2022.7(Mon Aug 22 19:01:30 CEST 2022)
(GPL source distribution)
Java Runtime: Java(TM) SE Runtime Environment
JVM: Java HotSpot(TM) 64-Bit Server VM
Default Encoding: Cp1252
Language: da
Country: DK
--></g></svg>